<svg xmlns="http://www.w3.org/2000/svg" xmlns:xlink="http://www.w3.org/1999/xlink" version="1.1" enable-background="new 44.2 -25 128 128" xml:space="preserve" width="128" height="40" style=""><rect id="backgroundrect" width="100%" height="100%" x="0" y="0" fill="none" stroke="none" style="" class=""/>

<g class="currentLayer" style=""><title>Layer 1</title><g id="svg_1" class="">
	<path d="M124.00000257492066,40.00000071525574 h-120 c-2.2,0 -4,-1.8 -4,-4 V4.000000715255737 c0,-2.2 1.8,-4 4,-4 h120 c2.2,0 4,1.8 4,4 v32 C128.00000257492064,38.20000071525574 126.20000257492066,40.00000071525574 124.00000257492066,40.00000071525574 z" id="svg_2"/>
	<path fill="#FFFFFF" d="M27.000002574920657,19.800000715255734 c0,-3.1 2.6,-4.6 2.7,-4.7 c-1.5,-2.1 -3.7,-2.4 -4.5,-2.5 c-1.9,-0.2 -3.8,1.1 -4.7,1.1 c-1,0 -2.5,-1.1 -4.1,-1.1 c-2.1,0 -4,1.2 -5.1,3.1 c-2.2,3.8 -0.6000000000000006,9.4 1.5,12.5 c1.1,1.5 2.3,3.2 3.9,3.1 c1.6,-0.1 2.2,-1 4.1,-1 c1.9,0 2.4,1 4.1,1 c1.7000000000000002,0 2.8,-1.5 3.8,-3 c1.2,-1.7000000000000002 1.7000000000000002,-3.4 1.7000000000000002,-3.5 C30.300002574920654,24.70000071525574 27.000002574920657,23.500000715255737 27.000002574920657,19.800000715255734 z" id="svg_3"/>
	<path fill="#FFFFFF" d="M23.90000257492065,10.600000715255739 c0.8,-1.1 1.4,-2.5 1.3,-4 c-1.2,0.1 -2.8,0.8 -3.6,1.9 c-0.8,0.9 -1.5,2.4 -1.3,3.8 C21.60000257492065,12.400000715255736 23.000002574920657,11.600000715255739 23.90000257492065,10.600000715255739 z" id="svg_4"/>
	<path fill="#FFFFFF" d="M49.800002574920654,31.10000071525573 h-2.2 l-1.2,-3.8 h-4.2 l-1.1,3.8 h-2.1 l4.2,-12.9 h2.6 L49.800002574920654,31.10000071525573 zM46.00000257492066,25.70000071525574 l-1.1,-3.4 c-0.1,-0.3000000000000003 -0.3000000000000003,-1.2 -0.7000000000000006,-2.4 h0 c-0.1,0.5 -0.3000000000000003,1.4 -0.6000000000000006,2.4 l-1.1,3.4 H46.00000257492066 z" id="svg_5"/>
	<path fill="#FFFFFF" d="M60.50000257492066,26.400000715255743 c0,1.6 -0.4,2.8 -1.3,3.8 c-0.8,0.8 -1.7000000000000002,1.2 -2.9,1.2 c-1.2,0 -2.1,-0.4 -2.6,-1.3 h0 v4.9 h-2.1 v-10 c0,-1 0,-2 -0.1,-3.1 h1.8 l0.1,1.5 h0 c0.7000000000000006,-1.1 1.7000000000000002,-1.7000000000000002 3.1,-1.7000000000000002 c1.1,0 2,0.4 2.7,1.3 C60.10000257492065,23.800000715255734 60.50000257492066,24.900000715255743 60.50000257492066,26.400000715255743 zM58.40000257492065,26.400000715255743 c0,-0.9 -0.2,-1.7000000000000002 -0.6000000000000006,-2.2 c-0.4,-0.6000000000000006 -1,-0.9 -1.8,-0.9 c-0.5,0 -1,0.2 -1.4,0.5 c-0.4,0.3000000000000003 -0.7000000000000006,0.8 -0.8,1.3 c-0.1,0.3000000000000003 -0.1,0.5 -0.1,0.6000000000000006 v1.6 c0,0.7000000000000006 0.2,1.2 0.6000000000000006,1.7000000000000002 c0.4,0.5 1,0.7000000000000006 1.6,0.7000000000000006 c0.8,0 1.4,-0.3000000000000003 1.8,-0.9 C58.20000257492066,28.20000071525574 58.40000257492065,27.400000715255743 58.40000257492065,26.400000715255743 z" id="svg_6"/>
	<path fill="#FFFFFF" d="M71.20000257492066,26.400000715255743 c0,1.6 -0.4,2.8 -1.3,3.8 c-0.8,0.8 -1.7000000000000002,1.2 -2.9,1.2 c-1.2,0 -2.1,-0.4 -2.6,-1.3 h0 v4.9 h-2.1 v-10 c0,-1 0,-2 -0.1,-3.1 h1.8 l0.1,1.5 h0 c0.7000000000000006,-1.1 1.7000000000000002,-1.7000000000000002 3.1,-1.7000000000000002 c1.1,0 2,0.4 2.7,1.3 C70.80000257492065,23.800000715255734 71.20000257492066,24.900000715255743 71.20000257492066,26.400000715255743 zM69.10000257492065,26.400000715255743 c0,-0.9 -0.2,-1.7000000000000002 -0.6000000000000006,-2.2 c-0.4,-0.6000000000000006 -1,-0.9 -1.8,-0.9 c-0.5,0 -1,0.2 -1.4,0.5 c-0.4,0.3000000000000003 -0.7000000000000006,0.8 -0.8,1.3 c-0.1,0.3000000000000003 -0.1,0.5 -0.1,0.6000000000000006 v1.6 c0,0.7000000000000006 0.2,1.2 0.6000000000000006,1.7000000000000002 c0.4,0.5 1,0.7000000000000006 1.6,0.7000000000000006 c0.8,0 1.4,-0.3000000000000003 1.8,-0.9 C68.90000257492065,28.20000071525574 69.10000257492065,27.400000715255743 69.10000257492065,26.400000715255743 z" id="svg_7"/>
	<path fill="#FFFFFF" d="M83.20000257492066,27.500000715255737 c0,1.1 -0.4,2 -1.1,2.7 c-0.8,0.8 -2,1.1 -3.5,1.1 c-1.4,0 -2.5,-0.3000000000000003 -3.3,-0.8 l0.5,-1.7000000000000002 c0.9,0.5 1.9,0.8 3,0.8 c0.8,0 1.4,-0.2 1.8,-0.5 c0.4,-0.4 0.6000000000000006,-0.8 0.6000000000000006,-1.4 c0,-0.5 -0.2,-1 -0.5,-1.3 c-0.4,-0.4 -1,-0.7000000000000006 -1.8,-1 c-2.3,-0.8 -3.4,-2.1 -3.4,-3.7 c0,-1.1 0.4,-1.9 1.2,-2.6 c0.8,-0.7000000000000006 1.8,-1 3.2,-1 c1.2,0 2.1,0.2 2.9,0.6000000000000006 l-0.5,1.7000000000000002 c-0.7000000000000006,-0.4 -1.5,-0.6000000000000006 -2.5,-0.6000000000000006 c-0.7000000000000006,0 -1.3,0.2 -1.7000000000000002,0.5 c-0.3000000000000003,0.3000000000000003 -0.5,0.7000000000000006 -0.5,1.2 c0,0.5 0.2,0.9 0.6000000000000006,1.3 c0.3000000000000003,0.3000000000000003 1,0.6000000000000006 1.9,1 c1.1,0.4 1.9,1 2.5,1.6 C82.90000257492065,25.900000715255743 83.20000257492066,26.60000071525573 83.20000257492066,27.500000715255737 z" id="svg_8"/>
	<path fill="#FFFFFF" d="M90.00000257492066,23.400000715255743 h-2.3 v4.5 c0,1.1 0.4,1.7000000000000002 1.2,1.7000000000000002 c0.4,0 0.7000000000000006,0 0.9,-0.1 l0.1,1.6 c-0.4,0.2 -0.9,0.2 -1.6,0.2 c-0.8,0 -1.5,-0.2 -1.9,-0.7000000000000006 c-0.5,-0.5 -0.7000000000000006,-1.3 -0.7000000000000006,-2.5 v-4.7 h-1.4 v-1.6 h1.4 v-1.7000000000000002 l2,-0.6000000000000006 v2.3 h2.3 V23.400000715255743 z" id="svg_9"/>
	<path fill="#FFFFFF" d="M100.30000257492065,26.400000715255743 c0,1.4 -0.4,2.6 -1.2,3.5 c-0.9,0.9 -2,1.4 -3.4,1.4 c-1.4,0 -2.5,-0.5 -3.3,-1.4 c-0.8,-0.9 -1.2,-2 -1.2,-3.4 c0,-1.4 0.4,-2.6 1.3,-3.5 c0.8,-0.9 2,-1.4 3.4,-1.4 c1.4,0 2.5,0.5 3.3,1.4 C99.90000257492065,23.900000715255743 100.30000257492065,25.000000715255737 100.30000257492065,26.400000715255743 zM98.10000257492067,26.500000715255737 c0,-0.9 -0.2,-1.6 -0.6000000000000006,-2.2 c-0.4,-0.7000000000000006 -1.1,-1.1 -1.9,-1.1 c-0.8,0 -1.5,0.4 -1.9,1.1 c-0.4,0.6000000000000006 -0.6000000000000006,1.4 -0.6000000000000006,2.2 c0,0.9 0.2,1.6 0.6000000000000006,2.2 c0.4,0.7000000000000006 1.1,1.1 1.9,1.1 c0.8,0 1.4,-0.4 1.9,-1.1 C97.90000257492065,28.10000071525573 98.10000257492067,27.300000715255734 98.10000257492067,26.500000715255737 z" id="svg_10"/>
	<path fill="#FFFFFF" d="M107.00000257492066,23.60000071525573 c-0.2,0 -0.4,-0.1 -0.7000000000000006,-0.1 c-0.7000000000000006,0 -1.3,0.3000000000000003 -1.7000000000000002,0.8 c-0.3000000000000003,0.5 -0.5,1.1 -0.5,1.8 v4.9 h-2.1 l0,-6.4 c0,-1.1 0,-2 -0.1,-2.9 h1.8 l0.1,1.8 h0.1 c0.2,-0.6000000000000006 0.6000000000000006,-1.1 1,-1.5 c0.5,-0.3000000000000003 1,-0.5 1.5,-0.5 c0.2,0 0.4,0 0.5,0 V23.60000071525573 z" id="svg_11"/>
	<path fill="#FFFFFF" d="M116.20000257492066,26.000000715255737 c0,0.4 0,0.7000000000000006 -0.1,0.9 h-6.2 c0,0.9 0.3000000000000003,1.6 0.9,2.1 c0.5,0.4 1.2,0.7000000000000006 2,0.7000000000000006 c0.9,0 1.8,-0.1 2.5,-0.4 l0.3000000000000003,1.4 c-0.9,0.4 -1.9,0.6000000000000006 -3.1,0.6000000000000006 c-1.4,0 -2.6,-0.4 -3.4,-1.3 c-0.8,-0.8 -1.2,-2 -1.2,-3.4 c0,-1.4 0.4,-2.6 1.1,-3.5 c0.8,-1 1.9,-1.5 3.3,-1.5 c1.3,0 2.4,0.5 3,1.5 C116.00000257492066,23.900000715255743 116.20000257492066,24.900000715255743 116.20000257492066,26.000000715255737 zM114.30000257492065,25.500000715255737 c0,-0.6000000000000006 -0.1,-1.1 -0.4,-1.6 c-0.4,-0.6000000000000006 -0.9,-0.9 -1.6,-0.9 c-0.7000000000000006,0 -1.2,0.3000000000000003 -1.6,0.8 c-0.3000000000000003,0.4 -0.5,1 -0.6000000000000006,1.6 H114.30000257492065 z" id="svg_12"/>
	<path fill="#FFFFFF" d="M45.40000257492065,10.300000715255734 c0,1.1 -0.3000000000000003,2 -1,2.6 c-0.6000000000000006,0.5 -1.5,0.8 -2.7,0.8 c-0.6000000000000006,0 -1.1,0 -1.5,-0.1 v-6.2 c0.5,-0.1 1.1,-0.1 1.8,-0.1 c1.1,0 1.9,0.2 2.5,0.7000000000000006 C45.00000257492066,8.500000715255737 45.40000257492065,9.300000715255734 45.40000257492065,10.300000715255734 zM44.300002574920654,10.300000715255734 c0,-0.7000000000000006 -0.2,-1.3 -0.6000000000000006,-1.7000000000000002 c-0.4,-0.4 -1,-0.6000000000000006 -1.7000000000000002,-0.6000000000000006 c-0.3000000000000003,0 -0.6000000000000006,0 -0.8,0.1 v4.7 c0.1,0 0.4,0 0.7000000000000006,0 c0.8,0 1.4,-0.2 1.8,-0.6000000000000006 C44.10000257492065,11.800000715255734 44.300002574920654,11.100000715255739 44.300002574920654,10.300000715255734 z" id="svg_13"/>
	<path fill="#FFFFFF" d="M51.00000257492066,11.300000715255734 c0,0.7000000000000006 -0.2,1.3 -0.6000000000000006,1.7000000000000002 c-0.4,0.5 -1,0.7000000000000006 -1.7000000000000002,0.7000000000000006 c-0.7000000000000006,0 -1.2,-0.2 -1.6,-0.7000000000000006 c-0.4,-0.4 -0.6000000000000006,-1 -0.6000000000000006,-1.7000000000000002 c0,-0.7000000000000006 0.2,-1.3 0.6000000000000006,-1.7000000000000002 c0.4,-0.5 1,-0.7000000000000006 1.7000000000000002,-0.7000000000000006 c0.7000000000000006,0 1.2,0.2 1.6,0.7000000000000006 C50.800002574920654,10.000000715255737 51.00000257492066,10.600000715255739 51.00000257492066,11.300000715255734 zM50.00000257492066,11.300000715255734 c0,-0.4 -0.1,-0.8 -0.3000000000000003,-1.1 c-0.2,-0.4 -0.5,-0.5 -0.9,-0.5 c-0.4,0 -0.7000000000000006,0.2 -0.9,0.5 c-0.2,0.3000000000000003 -0.3000000000000003,0.7000000000000006 -0.3000000000000003,1.1 c0,0.4 0.1,0.8 0.3000000000000003,1.1 c0.2,0.4 0.5,0.5 0.9,0.5 c0.4,0 0.7000000000000006,-0.2 0.9,-0.6000000000000006 C49.90000257492065,12.100000715255739 50.00000257492066,11.70000071525574 50.00000257492066,11.300000715255734 z" id="svg_14"/>
	<path fill="#FFFFFF" d="M58.70000257492066,9.000000715255737 l-1.4,4.6 h-0.9 l-0.6000000000000006,-2 c-0.2,-0.5 -0.3000000000000003,-1 -0.4,-1.5 h0 c-0.1,0.5 -0.2,1 -0.4,1.5 l-0.6000000000000006,2 h-0.9 L52.00000257492066,9.000000715255737 h1 l0.5,2.2 c0.1,0.5 0.2,1 0.3000000000000003,1.5 h0 c0.1,-0.4 0.2,-0.9 0.4,-1.5 l0.6000000000000006,-2.2 h0.8 l0.6000000000000006,2.1 c0.2,0.5 0.3000000000000003,1 0.4,1.5 h0 c0.1,-0.5 0.2,-1 0.3000000000000003,-1.5 l0.6000000000000006,-2.1 H58.70000257492066 z" id="svg_15"/>
	<path fill="#FFFFFF" d="M63.90000257492065,13.600000715255739 h-1 V11.000000715255737 c0,-0.8 -0.3000000000000003,-1.2 -0.9,-1.2 c-0.3000000000000003,0 -0.5,0.1 -0.7000000000000006,0.3000000000000003 c-0.2,0.2 -0.3000000000000003,0.5 -0.3000000000000003,0.8 v2.7 h-1 v-3.3 c0,-0.4 0,-0.8 0,-1.3 h0.9 l0,0.7000000000000006 h0 c0.1,-0.2 0.3000000000000003,-0.4 0.5,-0.6000000000000006 c0.3000000000000003,-0.2 0.6000000000000006,-0.3000000000000003 0.9,-0.3000000000000003 c0.4,0 0.8,0.1 1.1,0.4 c0.4,0.3000000000000003 0.5,0.8 0.5,1.5 V13.600000715255739 z" id="svg_16"/>
	<path fill="#FFFFFF" d="M66.70000257492066,13.600000715255739 h-1 v-6.7 h1 V13.600000715255739 z" id="svg_17"/>
	<path fill="#FFFFFF" d="M72.70000257492066,11.300000715255734 c0,0.7000000000000006 -0.2,1.3 -0.6000000000000006,1.7000000000000002 c-0.4,0.5 -1,0.7000000000000006 -1.7000000000000002,0.7000000000000006 c-0.7000000000000006,0 -1.2,-0.2 -1.6,-0.7000000000000006 c-0.4,-0.4 -0.6000000000000006,-1 -0.6000000000000006,-1.7000000000000002 c0,-0.7000000000000006 0.2,-1.3 0.6000000000000006,-1.7000000000000002 s1,-0.7000000000000006 1.7000000000000002,-0.7000000000000006 c0.7000000000000006,0 1.2,0.2 1.6,0.7000000000000006 C72.50000257492066,10.000000715255737 72.70000257492066,10.600000715255739 72.70000257492066,11.300000715255734 zM71.70000257492066,11.300000715255734 c0,-0.4 -0.1,-0.8 -0.3000000000000003,-1.1 c-0.2,-0.4 -0.5,-0.5 -0.9,-0.5 c-0.4,0 -0.7000000000000006,0.2 -0.9,0.5 c-0.2,0.3000000000000003 -0.3000000000000003,0.7000000000000006 -0.3000000000000003,1.1 c0,0.4 0.1,0.8 0.3000000000000003,1.1 c0.2,0.4 0.5,0.5 0.9,0.5 c0.4,0 0.7000000000000006,-0.2 0.9,-0.6000000000000006 C71.60000257492065,12.100000715255739 71.70000257492066,11.70000071525574 71.70000257492066,11.300000715255734 z" id="svg_18"/>
	<path fill="#FFFFFF" d="M77.60000257492065,13.600000715255739 h-0.9 l-0.1,-0.5 h0 c-0.3000000000000003,0.4 -0.8,0.6000000000000006 -1.3,0.6000000000000006 c-0.4,0 -0.8,-0.1 -1,-0.4 c-0.2,-0.3000000000000003 -0.4,-0.6000000000000006 -0.4,-0.9 c0,-0.6000000000000006 0.2,-1 0.7000000000000006,-1.3 c0.5,-0.3000000000000003 1.1,-0.4 2,-0.4 v-0.1 c0,-0.6000000000000006 -0.3000000000000003,-0.9 -0.9,-0.9 c-0.5,0 -0.8,0.1 -1.2,0.3000000000000003 l-0.2,-0.7000000000000006 c0.4,-0.3000000000000003 0.9,-0.4 1.6,-0.4 c1.2,0 1.8,0.6000000000000006 1.8,1.9 v1.7000000000000002 C77.60000257492065,13.000000715255737 77.60000257492065,13.300000715255734 77.60000257492065,13.600000715255739 zM76.60000257492065,12.000000715255737 v-0.7000000000000006 c-1.1,0 -1.7000000000000002,0.3000000000000003 -1.7000000000000002,0.9 c0,0.2 0.1,0.4 0.2,0.5 c0.1,0.1 0.3000000000000003,0.2 0.5,0.2 c0.2,0 0.4,-0.1 0.6000000000000006,-0.2 c0.2,-0.1 0.3000000000000003,-0.3000000000000003 0.4,-0.5 C76.60000257492065,12.20000071525574 76.60000257492065,12.100000715255739 76.60000257492065,12.000000715255737 z" id="svg_19"/>
	<path fill="#FFFFFF" d="M83.40000257492065,13.600000715255739 h-0.9 l0,-0.7000000000000006 h0 c-0.3000000000000003,0.6000000000000006 -0.8,0.8 -1.5,0.8 c-0.6000000000000006,0 -1,-0.2 -1.4,-0.6000000000000006 c-0.4,-0.4 -0.5,-1 -0.5,-1.7000000000000002 c0,-0.7000000000000006 0.2,-1.3 0.6000000000000006,-1.8 c0.4,-0.4 0.9,-0.6000000000000006 1.4,-0.6000000000000006 c0.6000000000000006,0 1,0.2 1.3,0.6000000000000006 h0 v-2.6 h1 v5.4 C83.40000257492065,12.800000715255734 83.40000257492065,13.20000071525574 83.40000257492065,13.600000715255739 zM82.40000257492065,11.70000071525574 v-0.8 c0,-0.1 0,-0.2 0,-0.3000000000000003 c-0.1,-0.2 -0.2,-0.4 -0.4,-0.6000000000000006 c-0.2,-0.2 -0.4,-0.2 -0.7000000000000006,-0.2 c-0.4,0 -0.7000000000000006,0.2 -0.9,0.5 c-0.2,0.3000000000000003 -0.3000000000000003,0.7000000000000006 -0.3000000000000003,1.2 c0,0.5 0.1,0.8 0.3000000000000003,1.1 c0.2,0.3000000000000003 0.5,0.5 0.9,0.5 c0.3000000000000003,0 0.6000000000000006,-0.1 0.8,-0.4 C82.30000257492065,12.300000715255734 82.40000257492065,12.000000715255737 82.40000257492065,11.70000071525574 z" id="svg_20"/>
	<path fill="#FFFFFF" d="M92.10000257492067,11.300000715255734 c0,0.7000000000000006 -0.2,1.3 -0.6000000000000006,1.7000000000000002 c-0.4,0.5 -1,0.7000000000000006 -1.7000000000000002,0.7000000000000006 c-0.7000000000000006,0 -1.2,-0.2 -1.6,-0.7000000000000006 c-0.4,-0.4 -0.6000000000000006,-1 -0.6000000000000006,-1.7000000000000002 c0,-0.7000000000000006 0.2,-1.3 0.6000000000000006,-1.7000000000000002 c0.4,-0.5 1,-0.7000000000000006 1.7000000000000002,-0.7000000000000006 c0.7000000000000006,0 1.2,0.2 1.6,0.7000000000000006 C91.90000257492065,10.000000715255737 92.10000257492067,10.600000715255739 92.10000257492067,11.300000715255734 zM91.00000257492066,11.300000715255734 c0,-0.4 -0.1,-0.8 -0.3000000000000003,-1.1 c-0.2,-0.4 -0.5,-0.5 -0.9,-0.5 c-0.4,0 -0.7000000000000006,0.2 -0.9,0.5 c-0.2,0.3000000000000003 -0.3000000000000003,0.7000000000000006 -0.3000000000000003,1.1 c0,0.4 0.1,0.8 0.3000000000000003,1.1 c0.2,0.4 0.5,0.5 0.9,0.5 c0.4,0 0.7000000000000006,-0.2 0.9,-0.6000000000000006 C90.90000257492065,12.100000715255739 91.00000257492066,11.70000071525574 91.00000257492066,11.300000715255734 z" id="svg_21"/>
	<path fill="#FFFFFF" d="M97.60000257492067,13.600000715255739 h-1 V11.000000715255737 c0,-0.8 -0.3000000000000003,-1.2 -0.9,-1.2 c-0.3000000000000003,0 -0.5,0.1 -0.7000000000000006,0.3000000000000003 c-0.2,0.2 -0.3000000000000003,0.5 -0.3000000000000003,0.8 v2.7 h-1 v-3.3 c0,-0.4 0,-0.8 0,-1.3 h0.9 l0,0.7000000000000006 h0 c0.1,-0.2 0.3000000000000003,-0.4 0.5,-0.6000000000000006 c0.3000000000000003,-0.2 0.6000000000000006,-0.3000000000000003 0.9,-0.3000000000000003 c0.4,0 0.8,0.1 1.1,0.4 c0.4,0.3000000000000003 0.5,0.8 0.5,1.5 V13.600000715255739 z" id="svg_22"/>
	<path fill="#FFFFFF" d="M104.40000257492065,9.800000715255734 h-1.1 V12.000000715255737 c0,0.6000000000000006 0.2,0.8 0.6000000000000006,0.8 c0.2,0 0.3000000000000003,0 0.5,0 l0,0.8 c-0.2,0.1 -0.5,0.1 -0.8,0.1 c-0.4,0 -0.7000000000000006,-0.1 -0.9,-0.4 c-0.2,-0.2 -0.3000000000000003,-0.7000000000000006 -0.3000000000000003,-1.2 v-2.3 h-0.7000000000000006 V9.000000715255737 h0.7000000000000006 v-0.8 l1,-0.3000000000000003 V9.000000715255737 h1.1 V9.800000715255734 z" id="svg_23"/>
	<path fill="#FFFFFF" d="M109.80000257492065,13.600000715255739 h-1 V11.000000715255737 c0,-0.8 -0.3000000000000003,-1.2 -0.9,-1.2 c-0.5,0 -0.8,0.2 -1,0.7000000000000006 c0,0.1 0,0.2 0,0.4 v2.7 h-1 v-6.7 h1 v2.8 h0 c0.3000000000000003,-0.5 0.8,-0.8 1.4,-0.8 c0.4,0 0.8,0.1 1,0.4 c0.3000000000000003,0.3000000000000003 0.5,0.9 0.5,1.5 V13.600000715255739 z" id="svg_24"/>
	<path fill="#FFFFFF" d="M115.30000257492065,11.100000715255739 c0,0.2 0,0.3000000000000003 0,0.5 h-3 c0,0.5 0.2,0.8 0.4,1 c0.3000000000000003,0.2 0.6000000000000006,0.3000000000000003 1,0.3000000000000003 c0.5,0 0.9,-0.1 1.2,-0.2 l0.2,0.7000000000000006 c-0.4,0.2 -0.9,0.3000000000000003 -1.5,0.3000000000000003 c-0.7000000000000006,0 -1.3,-0.2 -1.7000000000000002,-0.6000000000000006 c-0.4,-0.4 -0.6000000000000006,-1 -0.6000000000000006,-1.7000000000000002 c0,-0.7000000000000006 0.2,-1.3 0.6000000000000006,-1.7000000000000002 c0.4,-0.5 0.9,-0.7000000000000006 1.6,-0.7000000000000006 c0.7000000000000006,0 1.2,0.2 1.5,0.7000000000000006 C115.20000257492066,10.000000715255737 115.30000257492065,10.500000715255737 115.30000257492065,11.100000715255739 zM114.40000257492065,10.800000715255734 c0,-0.3000000000000003 -0.1,-0.6000000000000006 -0.2,-0.8 c-0.2,-0.3000000000000003 -0.4,-0.4 -0.8,-0.4 c-0.3000000000000003,0 -0.6000000000000006,0.1 -0.8,0.4 c-0.2,0.2 -0.3000000000000003,0.5 -0.3000000000000003,0.8 H114.40000257492065 z" id="svg_25"/>
</g></g></svg>