<svg xmlns="http://www.w3.org/2000/svg" xmlns:xlink="http://www.w3.org/1999/xlink" version="1.1" enable-background="new 185.5 -25.5 128 128" xml:space="preserve" width="128" height="40"><rect id="backgroundrect" width="100%" height="100%" x="0" y="0" fill="none" stroke="none" style="" class=""/>

<g class="currentLayer" style=""><title>Layer 1</title><g id="svg_1" class="">
	<path d="M124,40 h-120 c-2.2,0 -4,-1.8 -4,-4 v-32 c0,-2.2 1.8,-4 4,-4 h120 c2.2,0 4,1.8 4,4 v32 C128,38.2 126.19999999999999,40 124,40 z" id="svg_2"/>
	<linearGradient id="SVGID_1_" x1="0.29531457826884583" y1="-0.06095723805457593" x2="0.5509402963548231" y2="0.9215598722500147" transform="translate(0,-44) translate(-185.5,0) translate(0,25.5) ">
		<stop offset="0" style="stop-color:#006884"/>
		<stop offset="1" style="stop-color:#8AD1D0"/>
	</linearGradient>
	<path fill-rule="evenodd" clip-rule="evenodd" fill="url(#SVGID_1_)" d="M9.800000000000011,19.6 V9.100000000000001 c0,-0.6000000000000003 0.5,-1.1 1,-1.1 c0.5,0 0.7000000000000003,0.1 1,0.30000000000000016 l19.3,10.6 c0.4,0.2 0.6000000000000003,0.5 0.6000000000000003,0.8 c0,0.30000000000000016 -0.2,0.6000000000000003 -0.6000000000000003,0.8 l-19.3,10.6 c-0.2,0.1 -0.5,0.30000000000000016 -1,0.30000000000000016 c-0.5,0 -1,-0.5 -1,-1.1 V19.6 z" id="svg_3"/>
	<linearGradient id="SVGID_2_" x1="-0.07527936475852462" y1="0.15758969836179956" x2="0.9153701644977379" y2="0.862504299685206" transform="translate(0,-44) translate(-185.5,0) translate(0,25.5) ">
		<stop offset="0" style="stop-color:#24BBB6"/>
		<stop offset="1" style="stop-color:#DBE692"/>
	</linearGradient>
	<path fill-rule="evenodd" clip-rule="evenodd" fill="url(#SVGID_2_)" d="M22.30000000000001,19.700000000000003 l-11.7,-11.7 c0.1,0 0.1,0 0.2,0 c0.5,0 0.7000000000000003,0.1 1,0.30000000000000016 l14.2,7.8 L22.30000000000001,19.700000000000003 z" id="svg_4"/>
	<linearGradient id="SVGID_3_" x1="0.49940507013354674" y1="1.0575475883533623" x2="0.49940507013354674" y2="-0.031274250111436204" transform="translate(0,-44) translate(-185.5,0) translate(0,25.5) ">
		<stop offset="0" style="stop-color:#FCC072"/>
		<stop offset="1" style="stop-color:#F58A5B"/>
	</linearGradient>
	<path fill-rule="evenodd" clip-rule="evenodd" fill="url(#SVGID_3_)" d="M25.900000000000006,23.200000000000003 l-3.6,-3.6 l3.7,-3.7 l5.1,2.8 c0.4,0.2 0.6000000000000003,0.5 0.6000000000000003,0.8 c0,0.30000000000000016 -0.2,0.6000000000000003 -0.6000000000000003,0.8 L25.900000000000006,23.200000000000003 z" id="svg_5"/>
	<linearGradient id="SVGID_4_" x1="0.11149347285744689" y1="1.1783706050010014" x2="0.9043676240879869" y2="0.12102585081708497" transform="translate(0,-44) translate(-185.5,0) translate(0,25.5) ">
		<stop offset="0" style="stop-color:#712B8F"/>
		<stop offset="1" style="stop-color:#EA1D27"/>
	</linearGradient>
	<path fill-rule="evenodd" clip-rule="evenodd" fill="url(#SVGID_4_)" d="M10.699999999999989,31.200000000000003 L10.699999999999989,31.200000000000003 l11.6,-11.6 l3.6,3.6 l-14.1,7.7 C11.5,31.099999999999994 11.300000000000011,31.200000000000003 10.699999999999989,31.200000000000003 C10.800000000000011,31.200000000000003 10.800000000000011,31.200000000000003 10.699999999999989,31.200000000000003 z" id="svg_6"/>
	<path fill-rule="evenodd" clip-rule="evenodd" fill="#FFFFFF" d="M71.10000000000002,33.900000000000006 c-0.5,-0.4 -0.9,-1.1 -1.1,-1.5 l1.6,-0.7000000000000003 c0.1,0.2 0.30000000000000016,0.5 0.5,0.8 c0.4,0.4 1,0.8 1.6,0.8 c0.6000000000000003,0 1.3,-0.30000000000000016 1.7000000000000002,-0.8 c0.30000000000000016,-0.5 0.5,-1 0.5,-1.7000000000000002 v-0.6000000000000003 c-1.2,1.5 -3.7,1.3 -5.1,-0.30000000000000016 c-1.5,-1.6 -1.5,-4.3 0,-5.9 c1.5,-1.5 3.7,-1.7000000000000002 5,-0.30000000000000016 c0,0 0,0 0,0 v-0.7000000000000003 h1.7000000000000002 V30.5 c0,1.9 -0.7000000000000003,3 -1.6,3.7 c-0.6000000000000003,0.5 -1.5,0.7000000000000003 -2.3,0.7000000000000003 C72.69999999999999,34.8 71.80000000000001,34.5 71.10000000000002,33.900000000000006 L71.10000000000002,33.900000000000006 zM113,34.3 L113,34.3 l1.7000000000000002,-4 l-3,-6.9 h1.7000000000000002 l2.1,4.9 l2.1,-4.9 h1.7000000000000002 l-4.6,10.9 H113 L113,34.3 zM104.89999999999998,30.5 L104.89999999999998,30.5 c-0.5,-0.5 -0.7000000000000003,-1.2 -0.7000000000000003,-1.9 c0,-0.6000000000000003 0.2,-1.2 0.6000000000000003,-1.6 c0.7000000000000003,-0.7000000000000003 1.7000000000000002,-1 2.8,-1 c0.7000000000000003,0 1.3,0.1 1.8,0.4 c0,-1.2 -1,-1.7000000000000002 -1.8,-1.7000000000000002 c-0.7000000000000003,0 -1.4,0.4 -1.7000000000000002,1.1 l-1.5,-0.6000000000000003 c0.30000000000000016,-0.7000000000000003 1.1,-2 3.1,-2 c1,0 2,0.30000000000000016 2.6,1 c0.6000000000000003,0.7000000000000003 0.8,1.5 0.8,2.6 v4.2 h-1.7000000000000002 v-0.7000000000000003 c-0.2,0.30000000000000016 -0.6000000000000003,0.5 -0.9,0.7000000000000003 c-0.4,0.2 -0.9,0.30000000000000016 -1.4,0.30000000000000016 C106.30000000000001,31.200000000000003 105.39999999999998,31 104.89999999999998,30.5 L104.89999999999998,30.5 zM51.599999999999994,26.900000000000006 L51.599999999999994,26.900000000000006 c0,-2 1.5,-4.2 4.2,-4.2 c2.6,0 4.2,2.2 4.2,4.2 c0,2 -1.5,4.2 -4.2,4.2 C53.099999999999994,31.099999999999994 51.599999999999994,28.900000000000006 51.599999999999994,26.900000000000006 L51.599999999999994,26.900000000000006 zM60.599999999999994,26.900000000000006 L60.599999999999994,26.900000000000006 c0,-2 1.5,-4.2 4.2,-4.2 c2.6,0 4.2,2.2 4.2,4.2 c0,2 -1.5,4.2 -4.2,4.2 C62.19999999999999,31.099999999999994 60.599999999999994,28.900000000000006 60.599999999999994,26.900000000000006 L60.599999999999994,26.900000000000006 zM40.30000000000001,29.099999999999994 L40.30000000000001,29.099999999999994 c-2.5,-2.5 -2.4,-6.6 0.1,-9.2 c1.3,-1.3 2.9,-1.9 4.6,-1.9 c1.6,0 3.2,0.6000000000000003 4.4,1.8 l-1.2,1.3 c-1.8,-1.8 -4.7,-1.7000000000000002 -6.4,0.1 c-1.8,1.9 -1.8,4.8 0,6.7 c1.8,1.9 4.8,2 6.6,0.1 c0.6000000000000003,-0.6000000000000003 0.8,-1.4 0.9,-2.2 h-4.2 v-1.8 h5.9 c0.1,0.4 0.1,0.9 0.1,1.4 c0,1.5 -0.6000000000000003,3 -1.6,4 c-1.1,1.1 -2.7,1.7000000000000002 -4.3,1.7000000000000002 C43.400000000000006,31 41.599999999999994,30.400000000000006 40.30000000000001,29.099999999999994 L40.30000000000001,29.099999999999994 zM82.60000000000002,29.799999999999997 L82.60000000000002,29.799999999999997 c-1.5,-1.6 -1.5,-4.3 0,-6 c1.5,-1.6 4,-1.6 5.4,0 c0.5,0.5 0.8,1.2 1.1,1.9 l-5.5,2.3 c0.30000000000000016,0.7000000000000003 1,1.3 2,1.3 c0.9,0 1.5,-0.30000000000000016 2.1,-1.2 l1.5,1 h0 c-0.2,0.2 -0.4,0.4 -0.5,0.6000000000000003 C87,31.400000000000006 84.10000000000002,31.400000000000006 82.60000000000002,29.799999999999997 L82.60000000000002,29.799999999999997 zM93,31 L93,31 V19.9 h3.6 c2.1,0 3.8,1.5 3.8,3.3 c0,1.8 -1.5,3.3 -3.4,3.3 h-2.2 v4.4 H93 L93,31 zM101.39999999999998,31 L101.39999999999998,31 V19.9 h1.7000000000000002 v11.1 H101.39999999999998 L101.39999999999998,31 zM78.80000000000001,30.799999999999997 L78.80000000000001,30.799999999999997 V18.4 h1.8 v12.4 H78.80000000000001 L78.80000000000001,30.799999999999997 zM109.30000000000001,27.700000000000003 L109.30000000000001,27.700000000000003 c-0.4,-0.30000000000000016 -1,-0.4 -1.6,-0.4 c-1.2,0 -1.9,0.6000000000000003 -1.9,1.3 c0,0.7000000000000003 0.7000000000000003,1.1 1.4,1.1 C108.19999999999999,29.700000000000003 109.30000000000001,28.900000000000006 109.30000000000001,27.700000000000003 L109.30000000000001,27.700000000000003 zM58.099999999999994,26.900000000000006 L58.099999999999994,26.900000000000006 c0,-1.2 -0.8,-2.5 -2.3,-2.5 c-1.5,0 -2.3,1.3 -2.3,2.5 c0,1.2 0.8,2.5 2.3,2.5 C57.19999999999999,29.400000000000006 58.099999999999994,28.099999999999994 58.099999999999994,26.900000000000006 L58.099999999999994,26.900000000000006 zM67.1,26.900000000000006 L67.1,26.900000000000006 c0,-1.2 -0.8,-2.5 -2.3,-2.5 c-1.5,0 -2.3,1.3 -2.3,2.5 c0,1.2 0.8,2.5 2.3,2.5 C66.30000000000001,29.400000000000006 67.1,28.099999999999994 67.1,26.900000000000006 L67.1,26.900000000000006 zM76,27.599999999999994 L76,27.599999999999994 c0,-0.1 0,-0.2 0.1,-0.30000000000000016 c0,0 0,0 0,0 c0,-0.1 0,-0.30000000000000016 0,-0.4 c0,-0.1 0,-0.30000000000000016 0,-0.4 c0,0 0,-0.1 0,-0.1 c0,-0.1 -0.1,-0.30000000000000016 -0.1,-0.4 c-0.30000000000000016,-1 -1.2,-1.7000000000000002 -2.1,-1.7000000000000002 c-1.2,0 -2.2,1.2 -2.2,2.5 c0,1.4 1,2.5 2.3,2.5 C74.80000000000001,29.400000000000006 75.60000000000002,28.700000000000003 76,27.599999999999994 L76,27.599999999999994 zM83.30000000000001,26.700000000000003 L83.30000000000001,26.700000000000003 l3.7,-1.6 c-0.4,-0.7000000000000003 -1,-0.9 -1.5,-0.9 C84,24.299999999999997 83.10000000000002,25.900000000000006 83.30000000000001,26.700000000000003 L83.30000000000001,26.700000000000003 zM98.60000000000002,23.299999999999997 L98.60000000000002,23.299999999999997 c0,-1 -0.8,-1.7000000000000002 -1.9,-1.7000000000000002 h-2 v3.5 h2.1 C97.80000000000001,25.099999999999994 98.60000000000002,24.299999999999997 98.60000000000002,23.299999999999997 z" id="svg_7"/>
	<polygon fill-rule="evenodd" clip-rule="evenodd" fill="#FFFFFF" points="114.29998779296875,32.30000305175781 114.29998779296875,32.30000305175781 114.20001220703125,32.30000305175781 114.20001220703125,32.30000305175781 114.20001220703125,32.19999694824219 114.20001220703125,32.19999694824219 114.29998779296875,32.19999694824219 114.29998779296875,32.19999694824219 114.20001220703125,32.19999694824219 114.20001220703125,32.19999694824219 114.20001220703125,32.30000305175781 114.20001220703125,32.30000305175781 " id="svg_8"/>
	<path fill-rule="evenodd" clip-rule="evenodd" fill="#FFFFFF" d="M114.30000000000001,32.3 L114.30000000000001,32.3 C114.30000000000001,32.2 114.30000000000001,32.2 114.30000000000001,32.3 L114.30000000000001,32.3 C114.30000000000001,32.2 114.30000000000001,32.2 114.30000000000001,32.3 L114.30000000000001,32.3 L114.30000000000001,32.3 L114.30000000000001,32.3 L114.30000000000001,32.3 L114.30000000000001,32.3 L114.30000000000001,32.3 L114.30000000000001,32.3 L114.30000000000001,32.3 zM114.30000000000001,32.2 L114.30000000000001,32.2 C114.30000000000001,32.2 114.30000000000001,32.2 114.30000000000001,32.2 L114.30000000000001,32.2 L114.30000000000001,32.2 L114.30000000000001,32.2 C114.30000000000001,32.2 114.30000000000001,32.2 114.30000000000001,32.2 L114.30000000000001,32.2 z" id="svg_9"/>
	<polygon fill-rule="evenodd" clip-rule="evenodd" fill="#FFFFFF" points="114.29998779296875,32.30000305175781 114.29998779296875,32.30000305175781 114.29998779296875,32.19999694824219 114.29998779296875,32.19999694824219 114.29998779296875,32.19999694824219 114.29998779296875,32.19999694824219 114.29998779296875,32.19999694824219 114.29998779296875,32.19999694824219 114.29998779296875,32.19999694824219 114.29998779296875,32.19999694824219 114.29998779296875,32.30000305175781 114.29998779296875,32.30000305175781 " id="svg_10"/>
	<path fill-rule="evenodd" clip-rule="evenodd" fill="#FFFFFF" d="M114.30000000000001,32.3 L114.30000000000001,32.3 L114.30000000000001,32.3 L114.30000000000001,32.3 L114.30000000000001,32.3 L114.30000000000001,32.3 L114.30000000000001,32.3 L114.30000000000001,32.3 L114.30000000000001,32.3 L114.30000000000001,32.3 zM114.30000000000001,32.2 L114.30000000000001,32.2 L114.30000000000001,32.2 L114.30000000000001,32.2 C114.30000000000001,32.2 114.30000000000001,32.2 114.30000000000001,32.2 C114.30000000000001,32.2 114.30000000000001,32.2 114.30000000000001,32.2 L114.30000000000001,32.2 z" id="svg_11"/>
	<polygon fill-rule="evenodd" clip-rule="evenodd" fill="#FFFFFF" points="114.29998779296875,32.19999694824219 114.29998779296875,32.19999694824219 114.29998779296875,32.19999694824219 114.29998779296875,32.19999694824219 114.29998779296875,32.30000305175781 114.29998779296875,32.30000305175781 114.29998779296875,32.19999694824219 114.29998779296875,32.19999694824219 " id="svg_12"/>
	<polygon fill-rule="evenodd" clip-rule="evenodd" fill="#FFFFFF" points="114.29998779296875,32.30000305175781 114.29998779296875,32.30000305175781 114.29998779296875,32.19999694824219 114.29998779296875,32.19999694824219 114.29998779296875,32.19999694824219 114.29998779296875,32.19999694824219 114.29998779296875,32.19999694824219 114.29998779296875,32.19999694824219 114.29998779296875,32.19999694824219 114.29998779296875,32.19999694824219 114.29998779296875,32.30000305175781 114.29998779296875,32.30000305175781 " id="svg_13"/>
	<path fill-rule="evenodd" clip-rule="evenodd" fill="#FFFFFF" d="M114.30000000000001,32.3 L114.30000000000001,32.3 C114.30000000000001,32.2 114.30000000000001,32.2 114.30000000000001,32.3 L114.30000000000001,32.3 L114.30000000000001,32.3 L114.30000000000001,32.3 C114.30000000000001,32.3 114.30000000000001,32.3 114.30000000000001,32.3 L114.30000000000001,32.3 zM114.30000000000001,32.3 L114.30000000000001,32.3 C114.30000000000001,32.3 114.30000000000001,32.3 114.30000000000001,32.3 L114.30000000000001,32.3 L114.30000000000001,32.3 L114.30000000000001,32.3 C114.30000000000001,32.2 114.30000000000001,32.2 114.30000000000001,32.3 L114.30000000000001,32.3 z" id="svg_14"/>
	<path fill-rule="evenodd" clip-rule="evenodd" fill="#FFFFFF" d="M114.39999999999998,32.3 L114.39999999999998,32.3 C114.39999999999998,32.2 114.39999999999998,32.2 114.39999999999998,32.3 C114.39999999999998,32.2 114.39999999999998,32.2 114.39999999999998,32.3 L114.39999999999998,32.3 C114.39999999999998,32.2 114.39999999999998,32.2 114.39999999999998,32.3 L114.39999999999998,32.3 L114.39999999999998,32.3 L114.39999999999998,32.3 C114.39999999999998,32.3 114.39999999999998,32.3 114.39999999999998,32.3 L114.39999999999998,32.3 zM114.39999999999998,32.2 L114.39999999999998,32.2 C114.39999999999998,32.2 114.39999999999998,32.2 114.39999999999998,32.2 L114.39999999999998,32.2 L114.39999999999998,32.2 L114.39999999999998,32.2 C114.39999999999998,32.2 114.39999999999998,32.2 114.39999999999998,32.2 L114.39999999999998,32.2 L114.39999999999998,32.2 zM114.39999999999998,32.3 L114.39999999999998,32.3 C114.39999999999998,32.3 114.39999999999998,32.3 114.39999999999998,32.3 L114.39999999999998,32.3 L114.39999999999998,32.3 L114.39999999999998,32.3 C114.39999999999998,32.2 114.39999999999998,32.2 114.39999999999998,32.3 L114.39999999999998,32.3 z" id="svg_15"/>
	<polygon fill-rule="evenodd" clip-rule="evenodd" fill="#FFFFFF" points="114.39999389648438,32.19999694824219 114.39999389648438,32.19999694824219 114.39999389648438,32.19999694824219 114.39999389648438,32.19999694824219 114.39999389648438,32.19999694824219 114.39999389648438,32.19999694824219 114.39999389648438,32.19999694824219 114.39999389648438,32.19999694824219 114.39999389648438,32.30000305175781 114.39999389648438,32.30000305175781 114.39999389648438,32.19999694824219 " id="svg_16"/>
	<polygon fill-rule="evenodd" clip-rule="evenodd" fill="#FFFFFF" points="114.39999389648438,32.30000305175781 114.39999389648438,32.30000305175781 114.39999389648438,32.19999694824219 114.39999389648438,32.19999694824219 114.39999389648438,32.30000305175781 114.39999389648438,32.30000305175781 " id="svg_17"/>
	<path fill-rule="evenodd" clip-rule="evenodd" fill="#FFFFFF" d="M114.39999999999998,32.3 L114.39999999999998,32.3 C114.39999999999998,32.2 114.39999999999998,32.2 114.39999999999998,32.3 C114.39999999999998,32.2 114.39999999999998,32.2 114.39999999999998,32.3 L114.39999999999998,32.3 C114.39999999999998,32.3 114.39999999999998,32.3 114.39999999999998,32.3 C114.39999999999998,32.3 114.39999999999998,32.3 114.39999999999998,32.3 L114.39999999999998,32.3 zM114.39999999999998,32.2 L114.39999999999998,32.2 C114.39999999999998,32.3 114.39999999999998,32.3 114.39999999999998,32.2 C114.39999999999998,32.3 114.39999999999998,32.3 114.39999999999998,32.2 L114.39999999999998,32.2 C114.39999999999998,32.2 114.39999999999998,32.2 114.39999999999998,32.2 C114.39999999999998,32.2 114.39999999999998,32.2 114.39999999999998,32.2 L114.39999999999998,32.2 z" id="svg_18"/>
	<path fill-rule="evenodd" clip-rule="evenodd" fill="#FFFFFF" d="M114.39999999999998,32.3 L114.39999999999998,32.3 L114.39999999999998,32.3 L114.39999999999998,32.3 L114.39999999999998,32.3 L114.39999999999998,32.3 C114.39999999999998,32.3 114.39999999999998,32.3 114.39999999999998,32.3 C114.39999999999998,32.3 114.39999999999998,32.3 114.39999999999998,32.3 L114.39999999999998,32.3 C114.39999999999998,32.2 114.39999999999998,32.2 114.39999999999998,32.3 C114.39999999999998,32.2 114.39999999999998,32.2 114.39999999999998,32.3 L114.39999999999998,32.3 C114.39999999999998,32.2 114.39999999999998,32.2 114.39999999999998,32.3 C114.39999999999998,32.2 114.39999999999998,32.2 114.39999999999998,32.3 L114.39999999999998,32.3 C114.39999999999998,32.3 114.39999999999998,32.3 114.39999999999998,32.3 C114.39999999999998,32.3 114.39999999999998,32.3 114.39999999999998,32.3 L114.39999999999998,32.3 z" id="svg_19"/>
	<path fill-rule="evenodd" clip-rule="evenodd" fill="#FFFFFF" d="M114.5,32.3 L114.5,32.3 C114.5,32.2 114.5,32.2 114.5,32.3 C114.39999999999998,32.2 114.39999999999998,32.2 114.5,32.3 L114.5,32.3 C114.39999999999998,32.3 114.39999999999998,32.3 114.5,32.3 C114.5,32.3 114.5,32.3 114.5,32.3 L114.5,32.3 zM114.5,32.2 L114.5,32.2 C114.5,32.3 114.5,32.3 114.5,32.2 C114.5,32.3 114.39999999999998,32.3 114.5,32.2 L114.5,32.2 C114.39999999999998,32.2 114.5,32.2 114.5,32.2 C114.5,32.2 114.5,32.2 114.5,32.2 L114.5,32.2 z" id="svg_20"/>
	<polygon fill-rule="evenodd" clip-rule="evenodd" fill="#FFFFFF" points="114.5,32.30000305175781 114.5,32.19999694824219 114.5,32.19999694824219 114.5,32.19999694824219 114.5,32.19999694824219 114.5,32.19999694824219 114.5,32.30000305175781 114.5,32.30000305175781 114.5,32.19999694824219 114.5,32.19999694824219 114.5,32.30000305175781 114.5,32.30000305175781 114.5,32.19999694824219 114.5,32.19999694824219 114.5,32.30000305175781 " id="svg_21"/>
	<path fill-rule="evenodd" clip-rule="evenodd" fill="#FFFFFF" d="M114.5,32.3 L114.5,32.3 L114.5,32.3 L114.5,32.3 L114.5,32.3 L114.5,32.3 L114.5,32.3 L114.5,32.3 L114.5,32.3 L114.5,32.3 zM114.5,32.2 L114.5,32.2 L114.5,32.2 L114.5,32.2 C114.5,32.2 114.5,32.2 114.5,32.2 C114.5,32.2 114.5,32.2 114.5,32.2 L114.5,32.2 z" id="svg_22"/>
	<path fill-rule="evenodd" clip-rule="evenodd" fill="#FFFFFF" d="M114.5,32.3 C114.5,32.2 114.5,32.2 114.5,32.3 C114.5,32.2 114.5,32.2 114.5,32.3 C114.5,32.2 114.5,32.2 114.5,32.3 C114.5,32.2 114.5,32.2 114.5,32.3 L114.5,32.3 C114.5,32.2 114.5,32.2 114.5,32.3 C114.5,32.2 114.5,32.2 114.5,32.3 C114.5,32.2 114.5,32.2 114.5,32.3 C114.5,32.2 114.5,32.2 114.5,32.3 C114.5,32.3 114.5,32.3 114.5,32.3 C114.5,32.3 114.5,32.3 114.5,32.3 L114.5,32.3 C114.5,32.3 114.5,32.3 114.5,32.3 C114.5,32.3 114.5,32.3 114.5,32.3 z" id="svg_23"/>
	<polygon fill-rule="evenodd" clip-rule="evenodd" fill="#FFFFFF" points="114.60000610351562,32.19999694824219 114.5,32.19999694824219 114.5,32.19999694824219 114.60000610351562,32.19999694824219 114.60000610351562,32.30000305175781 114.60000610351562,32.30000305175781 114.60000610351562,32.19999694824219 114.60000610351562,32.19999694824219 " id="svg_24"/>
	<polygon fill-rule="evenodd" clip-rule="evenodd" fill="#FFFFFF" points="114.60000610351562,32.30000305175781 114.60000610351562,32.30000305175781 114.60000610351562,32.19999694824219 114.60000610351562,32.19999694824219 114.60000610351562,32.19999694824219 114.60000610351562,32.19999694824219 114.60000610351562,32.19999694824219 114.60000610351562,32.19999694824219 114.60000610351562,32.19999694824219 114.60000610351562,32.19999694824219 114.60000610351562,32.30000305175781 114.60000610351562,32.30000305175781 " id="svg_25"/>
	<path fill-rule="evenodd" clip-rule="evenodd" fill="#FFFFFF" d="M114.60000000000002,32.3 L114.60000000000002,32.3 C114.60000000000002,32.2 114.60000000000002,32.2 114.60000000000002,32.3 L114.60000000000002,32.3 C114.60000000000002,32.2 114.60000000000002,32.2 114.60000000000002,32.3 L114.60000000000002,32.3 L114.60000000000002,32.3 L114.60000000000002,32.3 L114.60000000000002,32.3 L114.60000000000002,32.3 L114.60000000000002,32.3 L114.60000000000002,32.3 L114.60000000000002,32.3 zM114.60000000000002,32.2 L114.60000000000002,32.2 C114.60000000000002,32.2 114.60000000000002,32.2 114.60000000000002,32.2 L114.60000000000002,32.2 L114.60000000000002,32.2 L114.60000000000002,32.2 C114.60000000000002,32.2 114.60000000000002,32.2 114.60000000000002,32.2 L114.60000000000002,32.2 z" id="svg_26"/>
	<path fill="#FFFFFF" d="M38.900000000000006,10.100000000000001 c0,-1.8 1.3,-2.9 2.9,-2.9 c1.1,0 1.8,0.5 2.3,1.2 l-0.8,0.5 c-0.30000000000000016,-0.4 -0.8,-0.7000000000000003 -1.5,-0.7000000000000003 c-1.1,0 -1.9,0.8 -1.9,2 c0,1.2 0.8,2 1.9,2 c0.6000000000000003,0 1.1,-0.30000000000000016 1.3,-0.5 v-0.9 H41.5 v-0.9 h2.7 v2.1 c-0.5,0.6000000000000003 -1.3,1 -2.3,1 C40.19999999999999,13 38.900000000000006,11.799999999999997 38.900000000000006,10.100000000000001 z" id="svg_27"/>
	<path fill="#FFFFFF" d="M45.400000000000006,12.899999999999999 v-5.6 h3.8 v0.9 h-2.9 v1.4 h2.8 v0.9 h-2.8 v1.6 h2.9 v0.9 L45.400000000000006,12.899999999999999 L45.400000000000006,12.899999999999999 z" id="svg_28"/>
	<path fill="#FFFFFF" d="M52,12.899999999999999 v-4.7 h-1.7000000000000002 v-0.9 h4.4 v0.9 h-1.7000000000000002 v4.7 H52 z" id="svg_29"/>
	<path fill="#FFFFFF" d="M58.099999999999994,12.899999999999999 v-5.6 h1 v5.6 C59.099999999999994,12.899999999999999 58.099999999999994,12.899999999999999 58.099999999999994,12.899999999999999 z" id="svg_30"/>
	<path fill="#FFFFFF" d="M61.80000000000001,12.899999999999999 v-4.7 h-1.7000000000000002 v-0.9 h4.4 v0.9 h-1.7000000000000002 v4.7 H61.80000000000001 z" id="svg_31"/>
	<path fill="#FFFFFF" d="M67.69999999999999,10.100000000000001 c0,-1.7000000000000002 1.2,-2.9 2.9,-2.9 c1.7000000000000002,0 2.9,1.2 2.9,2.9 s-1.2,2.9 -2.9,2.9 C68.9,13 67.69999999999999,11.700000000000003 67.69999999999999,10.100000000000001 zM72.39999999999998,10.100000000000001 c0,-1.2 -0.7000000000000003,-2 -1.9,-2 c-1.1,0 -1.9,0.9 -1.9,2 c0,1.2 0.7000000000000003,2 1.9,2 C71.69999999999999,12.100000000000001 72.39999999999998,11.200000000000003 72.39999999999998,10.100000000000001 z" id="svg_32"/>
	<path fill="#FFFFFF" d="M78.5,12.899999999999999 l-2.9,-4 v4 h-1 v-5.6 h1 l2.9,3.9 v-3.9 h1 v5.6 H78.5 z" id="svg_33"/>
</g></g></svg>