<svg xmlns="http://www.w3.org/2000/svg" xmlns:xlink="http://www.w3.org/1999/xlink" version="1.1" enable-background="new 326.8 -26.5 128 128" xml:space="preserve" width="128" height="40"><rect id="backgroundrect" width="100%" height="100%" x="0" y="0" fill="none" stroke="none" style="" class=""/>

<g class="currentLayer" style=""><title>Layer 1</title><g id="svg_1" class="">
	<path d="M124.00001220703126,40 h-120 c-2.2,0 -4,-1.8 -4,-4 v-32 c0,-2.2 1.8,-4 4,-4 h120 c2.2,0 4,1.8 4,4 v32 C128.00001220703126,38.2 126.20001220703125,40 124.00001220703126,40 z" id="svg_2"/>
	<g id="svg_3">
		<g id="bag_3_">
			<path fill="#FFFFFF" d="M18.20001220703125,29.299999999999997 l-9,-1.3 v-7.6 h9 V29.299999999999997 zM18.20001220703125,19.700000000000003 h-9 V12.5 l9,-1.3 V19.700000000000003 zM30.50001220703126,31 l-11.6,-1.7000000000000002 v-8.9 h11.6 V31 zM30.50001220703126,19.700000000000003 h-11.6 v-8.5 l11.6,-1.7000000000000002 V19.700000000000003 z" id="svg_4"/>
		</g>
	</g>
	<g id="svg_5">
		<path fill="#FFFFFF" d="M46.00001220703126,15.200000000000003 c-0.4,0.2 -1.3,0.4 -2.3,0.4 c-1.1,0 -2.1,-0.30000000000000004 -2.8,-1 c-0.6000000000000001,-0.6000000000000001 -1,-1.6 -1,-2.8 c0,-2.2 1.5,-3.9 4,-3.9 c0.9,0 1.5,0.2 1.9,0.30000000000000004 l-0.2,0.8 c-0.4,-0.2 -0.9,-0.30000000000000004 -1.6,-0.30000000000000004 c-1.8,0 -3,1.1 -3,3 c0,1.9 1.1,3 2.9,3 c0.6000000000000001,0 1.1,-0.1 1.3,-0.2 v-2.2 h-1.5 v-0.8 h2.4 V15.200000000000003 z" id="svg_6"/>
		<path fill="#FFFFFF" d="M48.00001220703126,13 c0,1.3 0.9,1.9 1.8,1.9 c0.7000000000000001,0 1.1,-0.1 1.5,-0.30000000000000004 l0.2,0.7000000000000001 c-0.30000000000000004,0.2 -0.9,0.30000000000000004 -1.8,0.30000000000000004 c-1.6,0 -2.6,-1.1 -2.6,-2.7 s0.9,-2.9 2.5,-2.9 c1.7000000000000002,0 2.2,1.5 2.2,2.5 c0,0.2 0,0.4 0,0.5 H48.00001220703126 zM50.90001220703124,12.3 c0,-0.6000000000000001 -0.30000000000000004,-1.6 -1.3,-1.6 c-1,0 -1.4,0.9 -1.5,1.6 H50.90001220703124 z" id="svg_7"/>
		<path fill="#FFFFFF" d="M54.20001220703125,8.600000000000001 v1.5 h1.4 v0.7000000000000001 H54.20001220703125 v2.9 c0,0.7000000000000001 0.2,1 0.7000000000000001,1 c0.30000000000000004,0 0.4,0 0.6000000000000001,-0.1 l0,0.7000000000000001 c-0.2,0.1 -0.5,0.1 -0.9,0.1 c-0.5,0 -0.8,-0.1 -1,-0.4 c-0.30000000000000004,-0.30000000000000004 -0.4,-0.8 -0.4,-1.4 v-2.9 h-0.8 v-0.7000000000000001 h0.8 v-1.3 L54.20001220703125,8.600000000000001 z" id="svg_8"/>
		<path fill="#FFFFFF" d="M60.10001220703123,8.600000000000001 c0,0.30000000000000004 -0.2,0.6000000000000001 -0.6000000000000001,0.6000000000000001 c-0.30000000000000004,0 -0.6000000000000001,-0.30000000000000004 -0.6000000000000001,-0.6000000000000001 c0,-0.30000000000000004 0.30000000000000004,-0.6000000000000001 0.6000000000000001,-0.6000000000000001 C59.80001220703127,8 60.10001220703123,8.3 60.10001220703123,8.600000000000001 zM59.00001220703126,15.5 v-5.4 h1 V15.5 H59.00001220703126 z" id="svg_9"/>
		<path fill="#FFFFFF" d="M62.70001220703125,8.600000000000001 v1.5 h1.4 v0.7000000000000001 h-1.4 v2.9 c0,0.7000000000000001 0.2,1 0.7000000000000001,1 c0.30000000000000004,0 0.4,0 0.6000000000000001,-0.1 l0,0.7000000000000001 c-0.2,0.1 -0.5,0.1 -0.9,0.1 c-0.5,0 -0.8,-0.1 -1,-0.4 c-0.30000000000000004,-0.30000000000000004 -0.4,-0.8 -0.4,-1.4 v-2.9 h-0.8 v-0.7000000000000001 h0.8 v-1.3 L62.70001220703125,8.600000000000001 z" id="svg_10"/>
		<path fill="#FFFFFF" d="M72.30001220703127,12.8 c0,2 -1.4,2.9 -2.7,2.9 c-1.4,0 -2.6,-1.1 -2.6,-2.8 c0,-1.8 1.2,-2.9 2.6,-2.9 C71.30001220703127,10 72.30001220703127,11.100000000000001 72.30001220703127,12.8 zM68.10001220703123,12.8 c0,1.2 0.7000000000000001,2.1 1.6,2.1 c0.9,0 1.6,-0.9 1.6,-2.1 c0,-0.9 -0.5,-2.1 -1.6,-2.1 C68.60001220703123,10.7 68.10001220703123,11.8 68.10001220703123,12.8 z" id="svg_11"/>
		<path fill="#FFFFFF" d="M73.50001220703126,11.600000000000001 c0,-0.6000000000000001 0,-1 0,-1.5 h0.9 l0.1,0.9 h0 c0.30000000000000004,-0.5 0.9,-1 1.8,-1 c0.7000000000000001,0 1.9,0.4 1.9,2.3 V15.5 h-1 v-3.1 c0,-0.9 -0.30000000000000004,-1.6 -1.2,-1.6 c-0.6000000000000001,0 -1.1,0.5 -1.3,1 c0,0.1 -0.1,0.30000000000000004 -0.1,0.5 V15.5 h-1 V11.600000000000001 z" id="svg_12"/>
		<path fill="#FFFFFF" d="M42.50001220703126,31.700000000000003 l-2.7,-10.9 h1.5 l1.3,5.5 c0.30000000000000004,1.4 0.6000000000000001,2.7 0.8,3.8 h0 c0.2,-1.1 0.5,-2.4 0.9,-3.8 l1.4,-5.5 h1.5 l1.3,5.5 c0.30000000000000004,1.3 0.6000000000000001,2.6 0.8,3.7 h0 c0.2,-1.2 0.5,-2.4 0.9,-3.8 l1.4,-5.5 h1.4 l-3.1,10.9 h-1.5 l-1.4,-5.7 c-0.30000000000000004,-1.4 -0.6000000000000001,-2.5 -0.7000000000000001,-3.6 h0 c-0.2,1.1 -0.4,2.1 -0.8,3.6 l-1.5,5.7 H42.50001220703126 z" id="svg_13"/>
		<path fill="#FFFFFF" d="M55.50001220703126,21.6 c0,0.5 -0.30000000000000004,0.9 -0.9,0.9 c-0.5,0 -0.9,-0.4 -0.9,-0.9 c0,-0.5 0.4,-0.9 0.9,-0.9 C55.20001220703125,20.799999999999997 55.50001220703126,21.1 55.50001220703126,21.6 zM53.90001220703124,31.700000000000003 v-7.8 h1.4 v7.8 H53.90001220703124 z" id="svg_14"/>
		<path fill="#FFFFFF" d="M57.10001220703123,26 c0,-0.8 0,-1.5 -0.1,-2.1 h1.3 l0.1,1.3 h0 c0.4,-0.7000000000000001 1.3,-1.5 2.6,-1.5 c1.1,0 2.7,0.6000000000000001 2.7,3.3 v4.7 h-1.4 v-4.5 c0,-1.3 -0.5,-2.3 -1.8,-2.3 c-0.9,0 -1.7000000000000002,0.7000000000000001 -1.9,1.5 c-0.1,0.2 -0.1,0.4 -0.1,0.7000000000000001 v4.7 h-1.4 V26 z" id="svg_15"/>
		<path fill="#FFFFFF" d="M72.60001220703123,20.200000000000003 v9.5 c0,0.7000000000000001 0,1.5 0.1,2 h-1.3 l-0.1,-1.4 h0 c-0.4,0.9 -1.4,1.5 -2.6,1.5 c-1.9,0 -3.3,-1.6 -3.3,-4 c0,-2.6 1.6,-4.2 3.5,-4.2 c1.2,0 2,0.6000000000000001 2.3,1.2 h0 v-4.7 H72.60001220703123 zM71.20001220703125,27 c0,-0.2 0,-0.4 -0.1,-0.6000000000000001 c-0.2,-0.9 -1,-1.6 -2,-1.6 c-1.5,0 -2.3,1.3 -2.3,3 c0,1.6 0.8,2.9 2.3,2.9 c0.9,0 1.8,-0.6000000000000001 2.1,-1.7000000000000002 c0,-0.2 0.1,-0.4 0.1,-0.6000000000000001 V27 z" id="svg_16"/>
		<path fill="#FFFFFF" d="M81.50001220703126,27.700000000000003 c0,2.9 -2,4.2 -3.9,4.2 c-2.1,0 -3.7,-1.6 -3.7,-4 c0,-2.6 1.7000000000000002,-4.2 3.9,-4.2 C80.00001220703126,23.700000000000003 81.50001220703126,25.299999999999997 81.50001220703126,27.700000000000003 zM75.40001220703124,27.799999999999997 c0,1.7000000000000002 1,3 2.4,3 c1.3,0 2.4,-1.3 2.4,-3 c0,-1.3 -0.7000000000000001,-3 -2.3,-3 C76.10001220703123,24.700000000000003 75.40001220703124,26.299999999999997 75.40001220703124,27.799999999999997 z" id="svg_17"/>
		<path fill="#FFFFFF" d="M83.30001220703127,23.799999999999997 l1,4 c0.2,0.9 0.4,1.7000000000000002 0.6000000000000001,2.5 h0 c0.2,-0.8 0.4,-1.6 0.7000000000000001,-2.5 l1.3,-4 h1.2 l1.2,3.9 c0.30000000000000004,0.9 0.5,1.8 0.7000000000000001,2.6 h0 c0.1,-0.8 0.30000000000000004,-1.6 0.6000000000000001,-2.5 l1.1,-3.9 h1.4 l-2.5,7.8 h-1.3 l-1.2,-3.7 c-0.30000000000000004,-0.9 -0.5,-1.6 -0.7000000000000001,-2.6 h0 c-0.2,0.9 -0.4,1.7000000000000002 -0.7000000000000001,2.6 l-1.3,3.7 H84.20001220703125 l-2.3,-7.8 H83.30001220703127 z" id="svg_18"/>
		<path fill="#FFFFFF" d="M94.20001220703125,30.200000000000003 c0.4,0.30000000000000004 1.2,0.6000000000000001 1.9,0.6000000000000001 c1,0 1.5,-0.5 1.5,-1.2 c0,-0.7000000000000001 -0.4,-1.1 -1.4,-1.4 c-1.4,-0.5 -2.1,-1.3 -2.1,-2.2 c0,-1.3 1,-2.3 2.7,-2.3 c0.8,0 1.5,0.2 1.9,0.5 l-0.4,1 c-0.30000000000000004,-0.2 -0.9,-0.5 -1.6,-0.5 c-0.8,0 -1.3,0.5 -1.3,1.1 c0,0.6000000000000001 0.5,0.9 1.5,1.3 c1.3,0.5 2,1.2 2,2.4 c0,1.4 -1.1,2.3 -2.9,2.3 c-0.9,0 -1.6,-0.2 -2.2,-0.5 L94.20001220703125,30.200000000000003 z" id="svg_19"/>
		<path fill="#FFFFFF" d="M105.50001220703126,22.5 L105.50001220703126,22.5 l-1.8,1 l-0.30000000000000004,-1.1 l2.3,-1.2 h1.2 v10.5 h-1.4 V22.5 z" id="svg_20"/>
		<path fill="#FFFFFF" d="M116.70001220703125,26.299999999999997 c0,3.6 -1.3,5.5 -3.6,5.5 c-2,0 -3.4,-1.9 -3.5,-5.4 c0,-3.5 1.5,-5.5 3.6,-5.5 C115.50001220703126,21 116.70001220703125,23 116.70001220703125,26.299999999999997 zM111.00001220703126,26.5 c0,2.7 0.8,4.3 2.1,4.3 c1.4,0 2.1,-1.7000000000000002 2.1,-4.4 c0,-2.6 -0.7000000000000001,-4.3 -2.1,-4.3 C111.90001220703124,22.1 111.00001220703126,23.6 111.00001220703126,26.5 z" id="svg_21"/>
	</g>
</g></g></svg>